# xmcd CD database file
#
# Track frame offsets:
#	150
#	19407
#	36512
#	55785
#
# Disc length: 968 seconds
#
# Revision: 2
# Processed by: cddbd v1.5PL3 Copyright (c) Steve Scherf et al.
# Submitted via: CDex 1.51
#
DISCID=3103c604
DTITLE=渕上史貴 - 夢で終わらせない…
DYEAR=1996
DGENRE=Pop
TTITLE0=夢で終わらせない…
TTITLE1=氷のまなざし
TTITLE2=夢で終わらせない…（オリジナルカラオケ）
TTITLE3=氷のまなざし（オリジナルカラオケ）
EXTD=YEAR: 1996
EXTT0=
EXTT1=
EXTT2=
EXTT3=
PLAYORDER=
